<svg width="348" height="348" viewBox="0 0 348 348" fill="none" xmlns="http://www.w3.org/2000/svg">
<path d="M172.78 302.852C245.313 302.852 304.103 244.053 304.103 171.529C304.103 99.0053 245.313 40.2158 172.78 40.2158C100.256 40.2158 41.457 99.0053 41.457 171.529C41.457 244.053 100.256 302.852 172.78 302.852Z" fill="#FFD75B"/>
<path d="M242.28 189.488C238.021 189.486 233.937 187.792 230.926 184.779C227.915 181.767 226.224 177.682 226.224 173.422C226.206 159.582 220.698 146.313 210.909 136.529C201.12 126.745 187.848 121.244 174.008 121.235C169.744 121.235 165.656 119.541 162.641 116.526C159.626 113.512 157.933 109.423 157.933 105.159C157.933 100.896 159.626 96.8074 162.641 93.7927C165.656 90.7781 169.744 89.0845 174.008 89.0845C196.363 89.1092 217.796 98.0007 233.603 113.808C249.411 129.616 258.302 151.048 258.327 173.404C258.332 177.663 256.645 181.75 253.638 184.766C250.63 187.782 246.539 189.481 242.28 189.488Z" fill="#424242"/>
<path d="M174 0C77.9042 0 0 77.9135 0 174C0 270.087 77.9135 348 174 348C270.087 348 348 270.087 348 174.009C348 77.9042 270.096 0 174.009 0H174ZM174 286.423C159.234 286.423 144.613 283.514 130.971 277.864C117.329 272.213 104.933 263.93 94.492 253.489C84.0509 243.048 75.7685 230.653 70.1178 217.011C64.4671 203.369 61.5588 188.747 61.5588 173.981C61.5588 159.215 64.4671 144.594 70.1178 130.952C75.7685 117.31 84.0509 104.915 94.492 94.4734C104.933 84.0323 117.329 75.7499 130.971 70.0992C144.613 64.4485 159.234 61.5401 174 61.5401C203.824 61.5401 232.426 73.3875 253.515 94.4761C274.603 115.565 286.451 144.167 286.451 173.991C286.451 203.814 274.603 232.417 253.515 253.505C232.426 274.594 203.824 286.441 174 286.441V286.423Z" fill="#424242"/>
</svg>
