<svg width="348" height="348" viewBox="0 0 348 348" fill="none" xmlns="http://www.w3.org/2000/svg">
<path d="M174 348C78.1809 348 0 269.819 0 174C0 78.1809 78.1809 0 174 0C269.819 0 348 78.1809 348 174C347.231 269.819 269.819 348 174 348ZM174 82.7874C123.412 82.7874 82.7874 124.181 82.7874 174.769C82.7874 225.357 124.181 265.982 174 265.982C223.819 265.982 265.213 224.588 265.213 174.769C265.213 123.412 223.819 82.7874 174 82.7874Z" fill="#2CB9FF"/>
<path d="M311.204 280.543C279.783 321.937 229.955 348 174 348C78.1809 348 0 269.819 0 174C0 78.1809 78.1809 0 174 0C229.955 0 279.774 26.8326 311.204 67.457L246.054 117.276C229.185 95.8191 203.131 82.0181 174 82.0181C123.412 82.0181 82.7874 123.412 82.7874 174C82.7874 224.588 124.181 265.213 174 265.213C203.122 265.213 229.185 251.421 246.054 229.955L311.204 280.543Z" fill="#0054C6"/>
</svg>
