<svg width="1440" height="373" viewBox="0 0 1440 373" fill="none" xmlns="http://www.w3.org/2000/svg">
<path d="M-27.0676 372.101C-27.2648 372.101 -27.4621 372.078 -27.6634 372.03C-29.046 371.704 -29.9033 370.317 -29.5753 368.935L15.4926 178.311C15.7189 177.356 16.4683 176.612 17.4253 176.395C18.3864 176.17 19.3808 176.521 19.9973 177.285L108.605 286.816L228.443 181.985C229.201 181.323 230.28 181.159 231.198 181.578L375.052 246.629L450.472 99.8061C450.972 98.8304 452.037 98.2657 453.119 98.4339L529.701 109.183L589.809 22.7339C590.317 22.0032 591.164 21.5589 592.057 21.6337C592.945 21.6793 593.749 22.1859 594.176 22.9644L671.979 164.879L779.308 112.38C780.2 111.944 781.265 112.06 782.044 112.679L940.049 238.703L1025.58 105.504C1026.31 104.359 1027.82 103.983 1029 104.649L1085.39 136.284L1101.22 111.23C1101.62 110.59 1102.29 110.161 1103.04 110.057C1103.79 109.949 1104.55 110.184 1105.11 110.686L1130.48 133.392L1255.8 17.8161C1256.8 16.8965 1258.34 16.911 1259.33 17.8493L1358.8 113.239L1465.56 0.922369C1466.54 -0.107281 1468.17 -0.148812 1469.2 0.831015C1470.23 1.80877 1470.27 3.43833 1469.29 4.47006L1360.75 118.659C1360.28 119.156 1359.63 119.444 1358.95 119.459C1358.26 119.482 1357.6 119.218 1357.11 118.745L1257.51 23.2404L1132.25 138.76C1131.28 139.659 1129.78 139.668 1128.79 138.787L1103.94 116.55L1088.44 141.098C1087.7 142.256 1086.19 142.638 1085 141.968L1028.59 110.325L942.835 243.882C942.441 244.497 941.807 244.912 941.087 245.03C940.369 245.149 939.634 244.958 939.065 244.503L780.103 117.715L672.031 170.58C670.798 171.182 669.305 170.711 668.645 169.505L591.658 29.0779L533.018 113.414C532.464 114.211 531.503 114.634 530.548 114.491L454.208 103.777L378.506 251.148C377.879 252.366 376.405 252.883 375.158 252.317L230.583 186.94L109.98 292.442C109.452 292.905 108.761 293.144 108.063 293.069C107.366 293.009 106.725 292.668 106.284 292.124L19.2915 184.592L-24.5703 370.114C-24.8464 371.303 -25.903 372.101 -27.0676 372.101Z" fill="#387ED1"/>
<path d="M17.9962 193.963C9.6926 193.963 2.93555 187.208 2.93555 178.902C2.93555 170.597 9.6926 163.842 17.9962 163.842C26.3019 163.842 33.059 170.597 33.059 178.902C33.059 187.208 26.3019 193.963 17.9962 193.963ZM17.9962 168.988C12.5304 168.988 8.08379 173.436 8.08379 178.902C8.08379 184.368 12.5304 188.817 17.9962 188.817C23.4642 188.817 27.9108 184.368 27.9108 178.902C27.9108 173.436 23.4642 168.988 17.9962 168.988Z" fill="#387ED1"/>
<path d="M230.16 201.173C221.854 201.173 215.099 194.418 215.099 186.112C215.099 177.806 221.856 171.051 230.16 171.051C238.464 171.051 245.221 177.806 245.221 186.112C245.221 194.418 238.466 201.173 230.16 201.173ZM230.16 176.195C224.692 176.195 220.246 180.644 220.246 186.11C220.246 191.576 224.692 196.024 230.16 196.024C235.628 196.024 240.075 191.576 240.075 186.11C240.075 180.644 235.628 176.195 230.16 176.195Z" fill="#387ED1"/>
<path d="M108.63 305.628C100.324 305.628 93.5674 298.873 93.5674 290.567C93.5674 282.262 100.324 275.507 108.63 275.507C116.936 275.507 123.691 282.262 123.691 290.567C123.691 298.873 116.934 305.628 108.63 305.628ZM108.63 280.653C103.162 280.653 98.7156 285.101 98.7156 290.567C98.7156 296.033 103.162 300.482 108.63 300.482C114.098 300.482 118.545 296.033 118.545 290.567C118.543 285.101 114.096 280.653 108.63 280.653Z" fill="#387ED1"/>
<path d="M453.455 115.517C445.149 115.517 438.394 108.762 438.394 100.456C438.394 92.1502 445.151 85.3951 453.455 85.3951C461.759 85.3951 468.516 92.1502 468.516 100.456C468.516 108.762 461.759 115.517 453.455 115.517ZM453.455 90.5413C447.987 90.5413 443.54 94.99 443.54 100.456C443.54 105.922 447.987 110.37 453.455 110.37C458.923 110.37 463.37 105.922 463.37 100.456C463.37 94.99 458.921 90.5413 453.455 90.5413Z" fill="#387ED1"/>
<path d="M529.286 128.005C520.98 128.005 514.223 121.25 514.223 112.944C514.223 104.639 520.98 97.8838 529.286 97.8838C537.591 97.8838 544.346 104.639 544.346 112.944C544.346 121.25 537.591 128.005 529.286 128.005ZM529.286 103.028C523.818 103.028 519.371 107.477 519.371 112.942C519.371 118.408 523.818 122.857 529.286 122.857C534.754 122.857 539.2 118.408 539.2 112.942C539.2 107.477 534.754 103.028 529.286 103.028Z" fill="#387ED1"/>
<path d="M591.129 40.2318C582.823 40.2318 576.068 33.4768 576.068 25.1711C576.068 16.8654 582.825 10.1104 591.129 10.1104C599.433 10.1104 606.19 16.8654 606.19 25.1711C606.192 33.4768 599.435 40.2318 591.129 40.2318ZM591.129 15.2565C585.661 15.2565 581.215 19.7052 581.215 25.1711C581.215 30.6369 585.661 35.0856 591.129 35.0856C596.597 35.0856 601.044 30.6369 601.044 25.1711C601.044 19.7052 596.597 15.2565 591.129 15.2565Z" fill="#387ED1"/>
<path d="M671.305 181.474C662.999 181.474 656.244 174.719 656.244 166.414C656.244 158.108 663.001 151.353 671.305 151.353C679.608 151.353 686.365 158.108 686.365 166.414C686.365 174.719 679.61 181.474 671.305 181.474ZM671.305 156.499C665.837 156.499 661.39 160.948 661.39 166.414C661.39 171.879 665.837 176.328 671.305 176.328C676.773 176.328 681.219 171.879 681.219 166.414C681.219 160.948 676.773 156.499 671.305 156.499Z" fill="#387ED1"/>
<path d="M780.991 131.989C772.686 131.989 765.931 125.234 765.931 116.928C765.931 108.622 772.688 101.867 780.991 101.867C789.297 101.867 796.054 108.622 796.054 116.928C796.054 125.234 789.297 131.989 780.991 131.989ZM780.991 107.014C775.523 107.014 771.077 111.462 771.077 116.928C771.077 122.394 775.523 126.843 780.991 126.843C786.459 126.843 790.906 122.394 790.906 116.928C790.906 111.462 786.459 107.014 780.991 107.014Z" fill="#387ED1"/>
<path d="M940.946 258.243C932.641 258.243 925.884 251.486 925.884 243.181C925.884 234.877 932.641 228.122 940.946 228.122C949.25 228.122 956.007 234.877 956.007 243.181C956.007 251.486 949.252 258.243 940.946 258.243ZM940.946 233.268C935.478 233.268 931.032 237.715 931.032 243.183C931.032 248.651 935.48 253.099 940.946 253.099C946.412 253.099 950.861 248.651 950.861 243.183C950.861 237.715 946.412 233.268 940.946 233.268Z" fill="#387ED1"/>
<path d="M1026.89 123.947C1018.59 123.947 1011.83 117.192 1011.83 108.886C1011.83 100.58 1018.59 93.8254 1026.89 93.8254C1035.2 93.8254 1041.96 100.58 1041.96 108.886C1041.96 117.192 1035.2 123.947 1026.89 123.947ZM1026.89 98.9716C1021.43 98.9716 1016.98 103.42 1016.98 108.886C1016.98 114.352 1021.43 118.801 1026.89 118.801C1032.36 118.801 1036.81 114.352 1036.81 108.886C1036.81 103.42 1032.36 98.9716 1026.89 98.9716Z" fill="#387ED1"/>
<path d="M1085.37 152.98C1077.06 152.98 1070.31 146.225 1070.31 137.92C1070.31 129.614 1077.06 122.859 1085.37 122.859C1093.67 122.859 1100.43 129.614 1100.43 137.92C1100.43 146.225 1093.67 152.98 1085.37 152.98ZM1085.37 128.005C1079.9 128.005 1075.45 132.454 1075.45 137.92C1075.45 143.386 1079.9 147.834 1085.37 147.834C1090.83 147.834 1095.28 143.386 1095.28 137.92C1095.28 132.454 1090.83 128.005 1085.37 128.005Z" fill="#387ED1"/>
<path d="M1103.98 128.005C1095.67 128.005 1088.91 121.25 1088.91 112.944C1088.91 104.639 1095.67 97.8838 1103.98 97.8838C1112.28 97.8838 1119.04 104.639 1119.04 112.944C1119.04 121.25 1112.28 128.005 1103.98 128.005ZM1103.98 103.028C1098.51 103.028 1094.06 107.477 1094.06 112.942C1094.06 118.408 1098.51 122.857 1103.98 122.857C1109.44 122.857 1113.89 118.408 1113.89 112.942C1113.89 107.477 1109.44 103.028 1103.98 103.028Z" fill="#387ED1"/>
<path d="M1128.95 152.98C1120.65 152.98 1113.89 146.225 1113.89 137.92C1113.89 129.614 1120.65 122.859 1128.95 122.859C1137.25 122.859 1144.01 129.614 1144.01 137.92C1144.01 146.225 1137.26 152.98 1128.95 152.98ZM1128.95 128.005C1123.48 128.005 1119.04 132.454 1119.04 137.92C1119.04 143.386 1123.48 147.834 1128.95 147.834C1134.42 147.834 1138.87 143.386 1138.87 137.92C1138.87 132.454 1134.42 128.005 1128.95 128.005Z" fill="#387ED1"/>
<path d="M1257.75 34.8884C1249.45 34.8884 1242.69 28.1313 1242.69 19.8256C1242.69 11.522 1249.45 4.76697 1257.75 4.76697C1266.06 4.76697 1272.82 11.522 1272.82 19.8256C1272.82 28.1313 1266.06 34.8884 1257.75 34.8884ZM1257.75 9.91106C1252.29 9.91106 1247.84 14.3577 1247.84 19.8236C1247.84 25.2915 1252.29 29.7401 1257.75 29.7401C1263.22 29.7401 1267.67 25.2915 1267.67 19.8236C1267.67 14.3577 1263.22 9.91106 1257.75 9.91106Z" fill="#387ED1"/>
<path d="M1358.33 131.989C1350.02 131.989 1343.26 125.234 1343.26 116.928C1343.26 108.622 1350.02 101.867 1358.33 101.867C1366.63 101.867 1373.39 108.622 1373.39 116.928C1373.39 125.234 1366.63 131.989 1358.33 131.989ZM1358.33 107.014C1352.86 107.014 1348.41 111.462 1348.41 116.928C1348.41 122.394 1352.86 126.843 1358.33 126.843C1363.79 126.843 1368.24 122.394 1368.24 116.928C1368.24 111.462 1363.79 107.014 1358.33 107.014Z" fill="#387ED1"/>
</svg>
