<svg width="1440" height="382" viewBox="0 0 1440 382" fill="none" xmlns="http://www.w3.org/2000/svg">
<path d="M-2.74017 381.019C-2.84604 381.019 -2.95397 381.001 -3.05984 380.967L-29.2889 372.402C-29.8287 372.226 -30.1255 371.644 -29.9491 371.105C-29.7726 370.565 -29.1893 370.272 -28.6516 370.445L-3.30273 378.721L55.7713 247.177C55.9063 246.878 56.1761 246.66 56.5 246.592C56.8238 246.523 57.156 246.615 57.4009 246.835L172.101 350.586L283.882 221.947C284.102 221.695 284.432 221.569 284.765 221.598C285.099 221.633 285.394 221.828 285.558 222.121L349.726 336.852L401.1 145.132C401.198 144.769 401.487 144.486 401.852 144.397C402.213 144.308 402.601 144.426 402.857 144.704L451.227 197.717L504.244 113.95C504.493 113.555 504.968 113.381 505.415 113.516L578.514 135.853L658.301 89.8588C658.762 89.5973 659.343 89.7218 659.65 90.1494L757.305 226.2L842.098 120.279C842.28 120.051 842.552 119.912 842.845 119.895C843.142 119.883 843.422 119.989 843.63 120.194L1013.93 290.254L1071.9 105.627C1072.07 105.088 1072.63 104.785 1073.18 104.953L1128.64 121.894L1178.61 68.1262C1178.83 67.8875 1179.14 67.7712 1179.46 67.8023C1179.78 67.8355 1180.07 68.014 1180.24 68.2901C1199.48 99.7733 1250.99 182.295 1258.22 186.009C1263.37 188.593 1306.37 124.585 1344.95 61.1511C1345.17 60.7899 1345.59 60.6052 1346.01 60.6716L1413.99 72.4814L1450.83 0.557486C1451.09 0.0551171 1451.71 -0.144162 1452.22 0.111174C1452.72 0.370662 1452.92 0.991357 1452.66 1.49788L1415.47 74.0964C1415.27 74.4971 1414.83 74.7234 1414.38 74.6404L1346.35 62.8202C1343.55 67.4038 1325.17 97.4317 1306.06 126.613C1263.78 191.165 1259.23 188.832 1257.28 187.837C1248.45 183.306 1186.94 83.1744 1179.19 70.5218L1129.7 123.767C1129.43 124.053 1129.02 124.167 1128.65 124.051L1073.55 107.222L1015.38 292.492C1015.28 292.835 1015 293.096 1014.65 293.183C1014.3 293.266 1013.93 293.165 1013.67 292.912L842.984 122.465L758.059 228.548C757.857 228.799 757.542 228.897 757.228 228.932C756.907 228.926 756.608 228.766 756.419 228.504L658.517 92.1091L579.149 137.86C578.902 138.001 578.609 138.036 578.335 137.951L505.56 115.714L452.242 199.957C452.07 200.229 451.782 200.403 451.464 200.432C451.146 200.469 450.831 200.339 450.613 200.1L402.599 147.48L351.057 339.831C350.947 340.236 350.604 340.535 350.189 340.587C349.767 340.628 349.367 340.433 349.163 340.068L284.474 224.402L172.962 352.731C172.782 352.938 172.524 353.065 172.248 353.082C171.954 353.113 171.7 353.003 171.495 352.82L57.0667 249.313L-1.80601 380.411C-1.97209 380.789 -2.34367 381.019 -2.74017 381.019Z" fill="#F6461A"/>
</svg>
