<svg width="1440" height="422" viewBox="0 0 1440 422" fill="none" xmlns="http://www.w3.org/2000/svg">
<g opacity="0.62">
<path d="M-27.0676 421.101C-27.2648 421.101 -27.462 421.078 -27.6634 421.03C-29.0459 420.704 -29.9033 419.317 -29.5753 417.935L15.4926 227.311C15.7189 226.356 16.4683 225.612 17.4253 225.395C18.3864 225.17 19.3808 225.521 19.9973 226.285L108.605 335.816L228.443 230.985C229.201 230.323 230.28 230.159 231.198 230.578L375.052 295.629L450.472 148.806C450.972 147.83 452.037 147.266 453.119 147.434L529.701 158.183L589.809 71.7339C590.317 71.0032 591.164 70.5589 592.057 70.6337C592.945 70.6793 593.749 71.1859 594.176 71.9644L671.979 213.879L779.308 161.38C780.2 160.944 781.265 161.06 782.044 161.679L940.049 287.703L1025.58 154.504C1026.31 153.359 1027.82 152.983 1029 153.649L1085.39 185.284L1101.22 160.23C1101.62 159.59 1102.29 159.161 1103.04 159.057C1103.79 158.949 1104.55 159.184 1105.11 159.686L1130.48 182.392L1255.8 66.8161C1256.8 65.8965 1258.34 65.911 1259.33 66.8493L1358.8 162.239L1465.56 49.9224C1466.54 48.8927 1468.17 48.8512 1469.2 49.831C1470.23 50.8088 1470.27 52.4383 1469.29 53.4701L1360.75 167.659C1360.28 168.156 1359.63 168.444 1358.95 168.459C1358.26 168.482 1357.6 168.218 1357.11 167.745L1257.51 72.2404L1132.25 187.76C1131.28 188.659 1129.78 188.668 1128.79 187.787L1103.94 165.55L1088.44 190.098C1087.7 191.256 1086.19 191.638 1085 190.968L1028.59 159.325L942.835 292.882C942.441 293.497 941.808 293.912 941.087 294.03C940.369 294.149 939.634 293.958 939.065 293.503L780.103 166.715L672.031 219.58C670.798 220.182 669.305 219.711 668.645 218.505L591.658 78.0779L533.018 162.414C532.464 163.211 531.503 163.634 530.548 163.491L454.208 152.777L378.506 300.148C377.879 301.366 376.405 301.883 375.158 301.317L230.583 235.94L109.98 341.442C109.452 341.905 108.761 342.144 108.063 342.069C107.366 342.009 106.725 341.668 106.284 341.124L19.2915 233.592L-24.5703 419.114C-24.8464 420.303 -25.903 421.101 -27.0676 421.101Z" fill="#387ED1"/>
<path d="M17.9962 242.963C9.69259 242.963 2.93554 236.208 2.93554 227.902C2.93554 219.597 9.69259 212.842 17.9962 212.842C26.3019 212.842 33.059 219.597 33.059 227.902C33.059 236.208 26.3019 242.963 17.9962 242.963ZM17.9962 217.988C12.5304 217.988 8.08378 222.436 8.08378 227.902C8.08378 233.368 12.5304 237.817 17.9962 237.817C23.4642 237.817 27.9107 233.368 27.9107 227.902C27.9107 222.436 23.4642 217.988 17.9962 217.988Z" fill="#387ED1"/>
<path d="M230.16 250.173C221.854 250.173 215.099 243.418 215.099 235.112C215.099 226.806 221.856 220.051 230.16 220.051C238.464 220.051 245.221 226.806 245.221 235.112C245.221 243.418 238.466 250.173 230.16 250.173ZM230.16 225.195C224.692 225.195 220.246 229.644 220.246 235.11C220.246 240.576 224.692 245.024 230.16 245.024C235.628 245.024 240.075 240.576 240.075 235.11C240.075 229.644 235.628 225.195 230.16 225.195Z" fill="#387ED1"/>
<path d="M108.63 354.628C100.325 354.628 93.5675 347.873 93.5675 339.567C93.5675 331.262 100.325 324.507 108.63 324.507C116.936 324.507 123.691 331.262 123.691 339.567C123.691 347.873 116.934 354.628 108.63 354.628ZM108.63 329.653C103.162 329.653 98.7158 334.101 98.7158 339.567C98.7158 345.033 103.162 349.482 108.63 349.482C114.098 349.482 118.545 345.033 118.545 339.567C118.543 334.101 114.096 329.653 108.63 329.653Z" fill="#387ED1"/>
<path d="M453.455 164.517C445.149 164.517 438.394 157.762 438.394 149.456C438.394 141.15 445.151 134.395 453.455 134.395C461.759 134.395 468.516 141.15 468.516 149.456C468.516 157.762 461.759 164.517 453.455 164.517ZM453.455 139.541C447.987 139.541 443.54 143.99 443.54 149.456C443.54 154.922 447.987 159.37 453.455 159.37C458.923 159.37 463.369 154.922 463.369 149.456C463.369 143.99 458.921 139.541 453.455 139.541Z" fill="#387ED1"/>
<path d="M529.286 177.005C520.98 177.005 514.223 170.25 514.223 161.944C514.223 153.639 520.98 146.884 529.286 146.884C537.591 146.884 544.346 153.639 544.346 161.944C544.346 170.25 537.591 177.005 529.286 177.005ZM529.286 152.028C523.818 152.028 519.371 156.477 519.371 161.942C519.371 167.408 523.818 171.857 529.286 171.857C534.754 171.857 539.2 167.408 539.2 161.942C539.2 156.477 534.754 152.028 529.286 152.028Z" fill="#387ED1"/>
<path d="M591.129 89.2318C582.823 89.2318 576.068 82.4768 576.068 74.1711C576.068 65.8654 582.825 59.1104 591.129 59.1104C599.433 59.1104 606.19 65.8654 606.19 74.1711C606.192 82.4768 599.435 89.2318 591.129 89.2318ZM591.129 64.2565C585.661 64.2565 581.215 68.7052 581.215 74.1711C581.215 79.6369 585.661 84.0856 591.129 84.0856C596.597 84.0856 601.044 79.6369 601.044 74.1711C601.044 68.7052 596.597 64.2565 591.129 64.2565Z" fill="#387ED1"/>
<path d="M671.305 230.474C662.999 230.474 656.244 223.719 656.244 215.414C656.244 207.108 663.001 200.353 671.305 200.353C679.608 200.353 686.365 207.108 686.365 215.414C686.365 223.719 679.61 230.474 671.305 230.474ZM671.305 205.499C665.837 205.499 661.39 209.948 661.39 215.414C661.39 220.879 665.837 225.328 671.305 225.328C676.773 225.328 681.219 220.879 681.219 215.414C681.219 209.948 676.773 205.499 671.305 205.499Z" fill="#387ED1"/>
<path d="M780.991 180.989C772.686 180.989 765.931 174.234 765.931 165.928C765.931 157.622 772.688 150.867 780.991 150.867C789.297 150.867 796.054 157.622 796.054 165.928C796.054 174.234 789.297 180.989 780.991 180.989ZM780.991 156.014C775.523 156.014 771.077 160.462 771.077 165.928C771.077 171.394 775.523 175.843 780.991 175.843C786.459 175.843 790.906 171.394 790.906 165.928C790.906 160.462 786.459 156.014 780.991 156.014Z" fill="#387ED1"/>
<path d="M940.946 307.243C932.641 307.243 925.884 300.486 925.884 292.181C925.884 283.877 932.641 277.122 940.946 277.122C949.25 277.122 956.007 283.877 956.007 292.181C956.007 300.486 949.252 307.243 940.946 307.243ZM940.946 282.268C935.478 282.268 931.032 286.715 931.032 292.183C931.032 297.651 935.48 302.099 940.946 302.099C946.412 302.099 950.861 297.651 950.861 292.183C950.861 286.715 946.412 282.268 940.946 282.268Z" fill="#387ED1"/>
<path d="M1026.9 172.947C1018.59 172.947 1011.83 166.192 1011.83 157.886C1011.83 149.58 1018.59 142.825 1026.9 142.825C1035.2 142.825 1041.96 149.58 1041.96 157.886C1041.96 166.192 1035.2 172.947 1026.9 172.947ZM1026.9 147.972C1021.43 147.972 1016.98 152.42 1016.98 157.886C1016.98 163.352 1021.43 167.801 1026.9 167.801C1032.36 167.801 1036.81 163.352 1036.81 157.886C1036.81 152.42 1032.36 147.972 1026.9 147.972Z" fill="#387ED1"/>
<path d="M1085.37 201.98C1077.06 201.98 1070.31 195.225 1070.31 186.92C1070.31 178.614 1077.06 171.859 1085.37 171.859C1093.67 171.859 1100.43 178.614 1100.43 186.92C1100.43 195.225 1093.67 201.98 1085.37 201.98ZM1085.37 177.005C1079.9 177.005 1075.45 181.454 1075.45 186.92C1075.45 192.386 1079.9 196.834 1085.37 196.834C1090.83 196.834 1095.28 192.386 1095.28 186.92C1095.28 181.454 1090.83 177.005 1085.37 177.005Z" fill="#387ED1"/>
<path d="M1103.98 177.005C1095.67 177.005 1088.91 170.25 1088.91 161.944C1088.91 153.639 1095.67 146.884 1103.98 146.884C1112.28 146.884 1119.04 153.639 1119.04 161.944C1119.04 170.25 1112.28 177.005 1103.98 177.005ZM1103.98 152.028C1098.51 152.028 1094.06 156.477 1094.06 161.942C1094.06 167.408 1098.51 171.857 1103.98 171.857C1109.44 171.857 1113.89 167.408 1113.89 161.942C1113.89 156.477 1109.44 152.028 1103.98 152.028Z" fill="#387ED1"/>
<path d="M1128.95 201.98C1120.65 201.98 1113.89 195.225 1113.89 186.92C1113.89 178.614 1120.65 171.859 1128.95 171.859C1137.25 171.859 1144.01 178.614 1144.01 186.92C1144.01 195.225 1137.26 201.98 1128.95 201.98ZM1128.95 177.005C1123.48 177.005 1119.04 181.454 1119.04 186.92C1119.04 192.386 1123.48 196.834 1128.95 196.834C1134.42 196.834 1138.87 192.386 1138.87 186.92C1138.87 181.454 1134.42 177.005 1128.95 177.005Z" fill="#387ED1"/>
<path d="M1257.75 83.8884C1249.45 83.8884 1242.69 77.1313 1242.69 68.8256C1242.69 60.522 1249.45 53.767 1257.75 53.767C1266.06 53.767 1272.82 60.522 1272.82 68.8256C1272.82 77.1313 1266.06 83.8884 1257.75 83.8884ZM1257.75 58.9111C1252.29 58.9111 1247.84 63.3577 1247.84 68.8236C1247.84 74.2915 1252.29 78.7401 1257.75 78.7401C1263.22 78.7401 1267.67 74.2915 1267.67 68.8236C1267.67 63.3577 1263.22 58.9111 1257.75 58.9111Z" fill="#387ED1"/>
<path d="M1358.33 180.989C1350.02 180.989 1343.26 174.234 1343.26 165.928C1343.26 157.622 1350.02 150.867 1358.33 150.867C1366.63 150.867 1373.39 157.622 1373.39 165.928C1373.39 174.234 1366.63 180.989 1358.33 180.989ZM1358.33 156.014C1352.86 156.014 1348.41 160.462 1348.41 165.928C1348.41 171.394 1352.86 175.843 1358.33 175.843C1363.79 175.843 1368.24 171.394 1368.24 165.928C1368.24 160.462 1363.79 156.014 1358.33 156.014Z" fill="#387ED1"/>
<path d="M-2.74017 381.019C-2.84604 381.019 -2.95397 381.001 -3.05984 380.967L-29.2889 372.402C-29.8287 372.226 -30.1255 371.644 -29.9491 371.105C-29.7726 370.565 -29.1893 370.272 -28.6516 370.445L-3.30273 378.721L55.7713 247.177C55.9063 246.878 56.1761 246.66 56.5 246.592C56.8238 246.523 57.156 246.615 57.4009 246.835L172.101 350.586L283.882 221.947C284.102 221.695 284.432 221.569 284.765 221.598C285.099 221.633 285.394 221.828 285.558 222.121L349.726 336.852L401.1 145.132C401.198 144.769 401.487 144.486 401.852 144.397C402.213 144.308 402.601 144.426 402.857 144.704L451.227 197.717L504.244 113.95C504.493 113.555 504.968 113.381 505.415 113.516L578.514 135.853L658.301 89.8588C658.762 89.5973 659.343 89.7218 659.65 90.1494L757.305 226.2L842.098 120.279C842.28 120.051 842.552 119.912 842.845 119.895C843.142 119.883 843.422 119.989 843.63 120.194L1013.93 290.254L1071.9 105.627C1072.07 105.088 1072.63 104.785 1073.18 104.953L1128.64 121.894L1178.61 68.1262C1178.83 67.8875 1179.14 67.7712 1179.46 67.8023C1179.78 67.8355 1180.07 68.014 1180.24 68.2901C1199.48 99.7733 1250.99 182.295 1258.22 186.009C1263.37 188.593 1306.37 124.585 1344.95 61.1511C1345.17 60.7899 1345.59 60.6052 1346.01 60.6716L1413.99 72.4814L1450.83 0.557486C1451.09 0.0551171 1451.71 -0.144162 1452.22 0.111174C1452.72 0.370662 1452.92 0.991357 1452.66 1.49788L1415.47 74.0964C1415.27 74.4971 1414.83 74.7234 1414.38 74.6404L1346.35 62.8202C1343.55 67.4038 1325.17 97.4317 1306.06 126.613C1263.78 191.165 1259.23 188.832 1257.28 187.837C1248.45 183.306 1186.94 83.1744 1179.19 70.5218L1129.7 123.767C1129.43 124.053 1129.02 124.167 1128.65 124.051L1073.55 107.222L1015.38 292.492C1015.28 292.835 1015 293.096 1014.65 293.183C1014.3 293.266 1013.93 293.165 1013.67 292.912L842.984 122.465L758.059 228.548C757.857 228.799 757.542 228.897 757.228 228.932C756.907 228.926 756.608 228.766 756.419 228.504L658.517 92.1091L579.149 137.86C578.902 138.001 578.609 138.036 578.335 137.951L505.56 115.714L452.242 199.957C452.07 200.229 451.782 200.403 451.464 200.432C451.146 200.469 450.831 200.339 450.613 200.1L402.599 147.48L351.057 339.831C350.947 340.236 350.604 340.535 350.189 340.587C349.767 340.628 349.367 340.433 349.163 340.068L284.474 224.402L172.962 352.731C172.782 352.938 172.524 353.065 172.248 353.082C171.954 353.113 171.7 353.003 171.495 352.82L57.0667 249.313L-1.80601 380.411C-1.97209 380.789 -2.34367 381.019 -2.74017 381.019Z" fill="#F6461A"/>
</g>
</svg>
