<svg width="327" height="348" viewBox="0 0 327 348" fill="none" xmlns="http://www.w3.org/2000/svg">
<g clip-path="url(#clip0_71_139)">
<path fill-rule="evenodd" clip-rule="evenodd" d="M26.0297 250.995C25.2332 250.636 24.5233 250.11 23.9482 249.452C23.3731 248.794 22.9462 248.021 22.6965 247.183C22.4577 246.354 22.4079 245.482 22.5509 244.632C22.694 243.781 23.0262 242.973 23.523 242.268L57.3987 194.293C58.0712 193.372 58.9733 192.643 60.0151 192.18C61.0569 191.716 62.2021 191.533 63.3364 191.65C65.6691 191.879 67.6864 193.314 68.5836 195.386L102.465 274.605C103.558 276.954 102.954 279.716 100.975 281.456C98.9901 283.196 96.0647 283.533 93.7048 282.293L26.0297 250.995ZM326.256 105.868C326.238 104.814 325.945 103.783 325.405 102.878C324.865 101.973 324.097 101.225 323.178 100.708C322.236 100.174 321.178 99.8778 320.096 99.8465C319.013 99.8153 317.94 100.049 316.969 100.529L166.6 174.457C165.587 174.935 164.729 175.688 164.124 176.63C163.518 177.573 163.189 178.666 163.174 179.786V341.975C163.185 344.091 164.354 346.043 166.247 347.13C168.144 348.218 170.499 348.288 172.456 347.31L322.879 273.387C324.956 272.354 326.256 270.298 326.25 268.058L326.256 105.868ZM244.606 265.763C223.862 275.959 207.033 265.513 207.05 242.388C208.159 217.5 222.313 194.826 244.688 182.058C265.432 171.852 282.245 182.347 282.245 205.44C281.13 230.333 266.982 253.002 244.606 265.763ZM306.056 79.9966C308.176 78.9581 309.497 76.8646 309.47 74.5917C309.446 73.4601 309.101 72.3587 308.475 71.4154C307.849 70.4722 306.969 69.7258 305.936 69.263L158.177 0.636304C157.283 0.213302 156.306 -0.00610352 155.317 -0.00610352C154.328 -0.00610352 153.351 0.213302 152.457 0.636304L3.41516 73.5423C1.29454 74.5754 -0.0267758 76.6689 0.000411666 78.9472C0.0254406 80.0794 0.371392 81.1812 0.998032 82.1246C1.62467 83.0679 2.50625 83.8139 3.54022 84.2759L151.364 152.892C153.148 153.729 155.236 153.729 157.019 152.892L306.056 79.9966ZM219.518 71.0846C220.551 71.5477 221.432 72.2949 222.058 73.2393C222.684 74.1836 223.029 75.2862 223.052 76.4187C223.079 78.6916 221.747 80.7851 219.632 81.8182L158.558 111.708C157.661 112.13 156.681 112.349 155.69 112.349C154.698 112.349 153.719 112.13 152.821 111.708L89.8551 82.4761C88.8221 82.0133 87.9417 81.267 87.3161 80.3237C86.6904 79.3804 86.3453 78.279 86.3207 77.1474C86.299 74.8691 87.6257 72.7811 89.7409 71.7425L150.826 41.858C152.631 40.9934 154.757 40.988 156.562 41.8417L219.518 71.0846Z" fill="#1F7AE0"/>
</g>
<defs>
<clipPath id="clip0_71_139">
<rect width="326.25" height="348" fill="white"/>
</clipPath>
</defs>
</svg>
